<?xml version="1.0" encoding="UTF-8"?>
<!-- Created with Inkscape (http://www.inkscape.org/) -->
<svg width="999" height="1e3" version="1.1" viewBox="0 0 264.32 264.58" xmlns="http://www.w3.org/2000/svg" xmlns:cc="http://creativecommons.org/ns#" xmlns:dc="http://purl.org/dc/elements/1.1/" xmlns:rdf="http://www.w3.org/1999/02/22-rdf-syntax-ns#">
 <metadata>
  <rdf:RDF>
   <cc:Work rdf:about="">
    <dc:format>image/svg+xml</dc:format>
    <dc:type rdf:resource="http://purl.org/dc/dcmitype/StillImage"/>
    <dc:title/>
   </cc:Work>
  </rdf:RDF>
 </metadata>
 <g transform="translate(0 -32.417)" display="none">
  <path d="m106.18 44.935c-25.045 0.20712-45.648 19.988-58.044 39.936-9.2592 14.9-15.028 30.443-19.373 44.518-4.3444 14.076-6.5162 28.412-6.5162 43.009 0 23.46 4.3443 42.14 13.033 56.042 8.8625 13.902 20.592 20.853 35.189 20.853 8.6887 0 17.551-3.1281 26.587-9.384 9.21-6.4296 17.638-15.118 25.284-26.066 9.0363-13.381 16.335-29.542 21.896-48.483 5.5608-18.941 8.341-37.275 8.341-55 0-20.158-4.2574-36.058-12.772-47.701-8.5149-11.817-20.955-17.83-33.625-17.725zm3.3655 25.405c6.9868 0.54814 11.556 4.779 15.379 14.337 3.823 9.3838 5.7344 22.503 5.7344 39.36 0 15.64-1.9982 30.671-5.995 45.095-3.823 14.423-9.3834 27.109-16.682 38.057-4.8657 7.2985-9.8183 12.772-14.858 16.421-4.8657 3.4755-9.8183 5.2132-14.858 5.2132-9.5576 0-16.943-5.3-22.156-15.9-5.2132-10.6-7.8198-26.153-7.8198-46.658 0-13.554 2.3461-26.675 7.038-39.36 7.5982-20.8 25.872-53.567 54.217-56.563z"/>
 </g>
 <g transform="translate(0 -32.417)" display="none">
  <path d="m97.74 114.89c-22.527 0.13622-41.057 13.146-52.206 26.265-8.3279 9.7996-13.517 20.022-17.424 29.279-3.9074 9.2574-5.8608 18.686-5.8608 28.287 0 15.429 3.9073 27.715 11.722 36.858 7.9711 9.1431 18.521 13.715 31.65 13.715 7.8149 0 15.786-2.0573 23.913-6.1717 8.2837-4.2287 15.864-9.943 22.741-17.143 8.1274-8.8002 14.692-19.429 19.694-31.887 5.0015-12.458 7.5021-24.515 7.5021-36.173 0-13.258-3.8292-23.715-11.488-31.372-7.6585-7.7717-18.848-11.726-30.243-11.657zm3.027 16.709c6.2841 0.3605 10.394 3.1431 13.832 9.429 3.4386 6.1716 5.1577 14.8 5.1577 25.886 0 10.286-1.7972 20.172-5.392 29.658-3.4385 9.486-8.4397 17.829-15.004 25.029-4.3763 4.8001-8.8308 8.4-13.363 10.8-4.3763 2.2858-8.8308 3.4287-13.363 3.4287-8.5963 0-15.239-3.4857-19.928-10.457-4.6889-6.9716-7.0333-17.2-7.0333-30.686 0-8.9146 2.1101-17.544 6.3302-25.887 6.834-13.68 23.27-35.23 48.764-37.201z"/>
 </g>
 <g display="none">
  <g transform="matrix(1.0181 0 -.10701 .92883 -19.626 19.309)" aria-label="s">
   <path d="m117.77 78.499c-5.6269 0-11.304 1.6888-15.929 5.0664-4.4547 3.3776-7.7091 8.042-7.7467 13.993-0.0366 5.7902 1.5151 11.828 5.575 16.975 4.2303 5.1468 11.396 9.7308 17.338 13.752 5.9426 4.021 11.97 8.1224 18.082 12.304 14.26 9.972 21.294 20.098 21.222 31.518-0.0722 11.42-4.9908 20.748-14.756 27.986-9.764 7.0769-22.234 10.615-37.41 10.615-15.005 0-26.668-2.8147-34.987-8.444-8.1491-5.6294-12.2-12.224-12.152-19.783 0.04881-7.7203 2.8069-13.151 6.2529-18.094 3.3326-4.7805 5.4017-7.3897 14.936-6.9519 3.0811 0.14151 5.9041 1.0812 8.6241 2.368-3.7798 4.5035-5.689 9.8112-5.7276 15.923-0.03864 6.1119 1.2789 10.689 5.1742 14.871 4.0659 4.1818 10.205 6.8424 17.196 6.8424 7.1616 0 13.717-2.2585 18.683-5.6361 4.9673-3.5385 9.5752-7.3918 9.6088-12.7 0.0335-5.3077-0.22709-8.8326-3.1004-12.854-2.8733-4.021-9.9353-10.328-14.35-13.223-4.2445-2.8951-9.4331-6.1119-14.526-9.6503-5.0931-3.5385-9.266-6.4268-13.678-9.8044-4.2405-3.5384-8.1938-6.7417-11.06-11.889-2.8652-5.3077-4.2779-11.098-4.2383-17.371 0.07219-11.42 4.735-20.748 13.989-27.986 9.2545-7.3986 20.873-11.098 34.855-11.098 13.982 0 24.196 2.7343 30.641 8.2028 6.4449 5.4685 9.6455 11.661 9.6018 18.577-0.0427 6.7552-1.8221 12.442-5.478 16.888-3.2944 4.0062-3.4754 9.0668-13.655 7.3897 0 0-4.7504-0.067-9.6477-3.0471 4.4659-5.1468 6.7176-10.696 6.7553-16.647 0.0376-5.951-1.8636-10.455-5.766-13.51-3.732-3.0559-8.528-4.5839-14.325-4.5839z" stroke-width="7.823"/>
  </g>
 </g>
 <g display="none">
  <path d="m81.171 74.846c-1.9344 0-3.8678 0.18396-5.8003 0.55242-1.8178 0.27634-3.7268 0.73702-5.727 1.3818 0.94612 4.79 1.1132 10.317 0.50102 16.581-0.61216 6.2638-3.0195 18.047-5.214 26.944-1.774 9.5895-17.112 24.182-27.464 34.684-12.455 12.635-29.67 27.033-41.248 33.638l6.7761 9.6537c12.85-6.9194 38.7-25.987 48.346-37.095-3.2198 10.796-7.1952 32.178-7.677 34.147-1.6686 6.8165-1.9555 11.376-0.86113 13.679 1.209 2.2108 4.0703 3.3161 8.5839 3.3161 3.4083 0 6.9867-0.50653 10.735-1.5198 3.8405-1.0133 7.84-2.4875 11.998-4.422-1.7809-5.8954-2.3269-13.449-1.638-22.66 0.78103-9.2115 2.8624-20.726 6.2447-34.543 0.99214-4.0531 2.1448-8.1986 3.4584-12.436 1.3361-4.3294 2.742-8.5667 4.2173-12.712 6.8419-8.3825 17.476-13.963 27.285-19.206 4.6618-2.492 10.28-5.7118 14.794-5.7118 3.0398 0 10.071 3.0839 11.716 5.0183 1.7372 1.9344 2.8468 4.9278 3.3285 8.9808 4.8668-2.9477 8.2408-5.2286 11.422-8.8429 2.3653-2.687 4.6772-6.1254 5.4439-9.2573 1.1725-4.79-2.2237-11.972-5.1191-15.196-2.7808-3.3162-6.7503-4.9739-11.909-4.9739-6.0796 0-14.582 3.9079-21.332 7.1846-11.813 5.7344-23.697 11.883-32.973 21.555 1.1332-3.5004 1.9942-6.2639 2.5824-8.2904 0.70285-2.1187 1.2009-3.7769 1.494-4.9744 1.2853-5.2506 0.94274-9.1194-1.0277-11.607-1.9479-2.5792-5.5934-3.8685-10.936-3.8685z"/>
 </g>
 <g display="none">
  <text x="-99.760284" y="52.926395" display="inline" fill="#000000" font-family="'Fira Code iScript'" font-size="93.282px" letter-spacing="0px" stroke-width="2.332" word-spacing="0px" style="line-height:1.25" xml:space="preserve"><tspan x="-99.760284" y="52.926395" font-family="'Fira Code iScript'" stroke-width="2.332">lf</tspan></text>
 </g>
 <g aria-label="l">
  <path d="m73.22 130.43c37.276-31.6 63.633-97.61 50.433-107.77-7.8436-5.1767-22.773 3.0375-38.627 38.344-10.536 23.463-11.689 46.374-11.805 69.422zm-20.143 35.016c-6.7099 5.827-14.038 11.566-21.984 17.216-7.7694 5.4739-16.686 11.389-25.691 16.686l-7.4162-9.5352c6.5334-3.5315 14.567-9.0932 23.043-15.627 8.6523-6.5333 18.982-15.097 30.989-25.692 1.236-34.962 6.1742-59.532 15.627-87.671 13.602-40.491 49.032-61.463 63.136-50.554 19.018 14.71 6.3412 59.274-12.663 87.087-11.585 16.954-21.347 29.511-43.243 49.641 0.17658 21.896 1.2454 34.429 6.5427 41.492 5.2973 6.8865 15.009 10.33 29.135 10.33 7.7694 0 15.627-0.79459 23.573-2.3838 7.946-1.7658 15.804-4.3261 23.573-7.6811l6.3568 9.8c-11.478 5.6505-22.867 9.8883-34.168 12.714-11.301 2.8252-22.425 4.2378-33.373 4.2378-14.832 0-25.515-3.7081-32.049-11.124-6.5334-7.5928-10.33-20.571-11.389-38.935z" stroke-width="6.6216"/>
 </g>
</svg>
