<?xml version="1.0" encoding="UTF-8" standalone="no"?>
<!-- Created with Inkscape (http://www.inkscape.org/) -->

<svg
   xmlns:dc="http://purl.org/dc/elements/1.1/"
   xmlns:cc="http://creativecommons.org/ns#"
   xmlns:rdf="http://www.w3.org/1999/02/22-rdf-syntax-ns#"
   xmlns:svg="http://www.w3.org/2000/svg"
   xmlns="http://www.w3.org/2000/svg"
   xmlns:sodipodi="http://sodipodi.sourceforge.net/DTD/sodipodi-0.dtd"
   xmlns:inkscape="http://www.inkscape.org/namespaces/inkscape"
   width="999"
   height="1000"
   viewBox="0 0 264.31875 264.58334"
   version="1.1"
   id="svg8"
   sodipodi:docname="S.svg"
   inkscape:version="0.92.2 (5c3e80d, 2017-08-06)">
  <defs
     id="defs2" />
  <sodipodi:namedview
     id="base"
     pagecolor="#ffffff"
     bordercolor="#666666"
     borderopacity="1.0"
     inkscape:pageopacity="0.0"
     inkscape:pageshadow="2"
     inkscape:zoom="0.65053824"
     inkscape:cx="180.23956"
     inkscape:cy="573.09838"
     inkscape:document-units="px"
     inkscape:current-layer="layer2"
     showgrid="false"
     units="px"
     showguides="true"
     inkscape:guide-bbox="true"
     inkscape:window-width="900"
     inkscape:window-height="811"
     inkscape:window-x="944"
     inkscape:window-y="21"
     inkscape:window-maximized="0">
    <sodipodi:guide
       position="30.994048,52.916667"
       orientation="0,1"
       id="guide10"
       inkscape:locked="false"
       inkscape:label=""
       inkscape:color="rgb(0,0,255)" />
  </sodipodi:namedview>
  <metadata
     id="metadata5">
    <rdf:RDF>
      <cc:Work
         rdf:about="">
        <dc:format>image/svg+xml</dc:format>
        <dc:type
           rdf:resource="http://purl.org/dc/dcmitype/StillImage" />
        <dc:title />
      </cc:Work>
    </rdf:RDF>
  </metadata>
  <g
     inkscape:groupmode="layer"
     id="layer2"
     inkscape:label="s">
    <g
       transform="matrix(1.0181484,0,-0.10701171,0.92883324,-19.626382,19.309338)"
       id="text76"
       style="font-style:normal;font-variant:normal;font-weight:normal;font-stretch:normal;font-size:241.2585144px;line-height:1.25;font-family:merienda;-inkscape-font-specification:merienda;letter-spacing:0px;word-spacing:0px;fill:#000000;fill-opacity:1;stroke:none;stroke-width:7.59787178"
       aria-label="s">
      <path
         inkscape:connector-curvature="0"
         id="path23"
         style="font-style:normal;font-variant:normal;font-weight:normal;font-stretch:normal;font-family:merienda;-inkscape-font-specification:merienda;stroke-width:7.82304096"
         d="m 117.7724,78.49937 c -5.62694,0 -11.30403,1.68881 -15.92924,5.066429 -4.454719,3.377619 -7.709109,8.04195 -7.746729,13.992993 -0.0366,5.790208 1.515141,11.828438 5.574951,16.975288 4.230288,5.14685 11.395648,9.73076 17.338208,13.75174 5.94256,4.02097 11.96985,8.12237 18.0819,12.30418 14.26008,9.97202 21.29415,20.0981 21.22196,31.51767 -0.0722,11.41957 -4.99081,20.74824 -14.75583,27.98599 -9.76401,7.07692 -22.23387,10.61538 -37.40956,10.61538 -15.005226,0 -26.667604,-2.81468 -34.987174,-8.44405 -8.149058,-5.62937 -12.199691,-12.22377 -12.1519,-19.7832 0.04881,-7.72027 2.806855,-13.15122 6.252878,-18.09439 3.332643,-4.78053 5.401711,-7.38974 14.935704,-6.95186 3.081062,0.14151 5.904053,1.08124 8.624134,2.36795 -3.779768,4.50349 -5.688971,9.81118 -5.72761,15.92306 -0.03864,6.11188 1.278851,10.68902 5.174224,14.87084 4.065886,4.18181 10.20524,6.84243 17.196324,6.84243 7.16157,0 13.71658,-2.25852 18.68283,-5.63614 4.96726,-3.53846 9.57522,-7.39182 9.60878,-12.69951 0.0335,-5.30769 -0.22709,-8.8326 -3.10041,-12.85357 -2.8733,-4.02098 -9.93528,-10.32757 -14.35032,-13.22267 -4.24454,-2.8951 -9.43306,-6.11188 -14.526101,-9.65034 -5.093066,-3.53846 -9.26597,-6.42679 -13.677968,-9.80441 -4.240466,-3.53845 -8.19377,-6.74169 -11.059961,-11.88854 -2.865173,-5.30769 -4.277932,-11.09789 -4.238276,-17.37061 0.07219,-11.419569 4.735034,-20.748232 13.988519,-27.985987 9.254501,-7.398595 20.872847,-11.097892 34.854947,-11.097892 13.98211,0 24.19563,2.734263 30.64057,8.20279 6.44493,5.468526 9.64554,11.660828 9.60182,18.576906 -0.0427,6.755235 -1.82212,12.442383 -5.47795,16.888093 -3.29436,4.00615 -3.47539,9.06679 -13.65485,7.38973 0,0 -4.75036,-0.067 -9.64768,-3.04707 4.46588,-5.14685 6.71764,-10.6958 6.75526,-16.646842 0.0376,-5.951043 -1.86355,-10.454535 -5.76603,-13.510476 -3.73198,-3.055941 -8.52796,-4.583912 -14.32542,-4.583912 z"
         sodipodi:nodetypes="scscscscscssscscscsccsccscsssascscs" />
    </g>
  </g>
</svg>
